<?xml version="1.0" encoding="UTF-8"?>
<svg id="Layer_1" data-name="Layer 1" xmlns="http://www.w3.org/2000/svg" viewBox="0 0 87.19697 71.41396">
  <path d="m68.84484,32.26257c-1.45826-.11095-2.64613-1.15845-3.03233-2.46898-1.42313-4.82925-4.22584-8.72451-8.17638-11.80162-3.68545-2.87063-7.89558-4.41153-12.53764-4.80421-.182-.01539-.36641-.00196-.60941-.00196-.08444,1.40451-.16561,2.75496-.2391,3.97734,2.1122.95874,4.1937,1.75872,6.13731,2.81293,5.82822,3.16117,10.80191,7.42541,15.26705,12.28514,5.47843,5.96258,10.19946,12.46043,13.64101,19.82965,1.42048,3.04162,2.36168,6.23978,3.04418,9.51873.02638.12675.00336.26379.10491.3358-1.02699-2.08611-1.96051-4.22489-3.10022-6.24748-2.44185-4.33342-5.76876-7.96336-9.36077-11.36312-5.88696-5.57185-12.36638-10.29767-19.73051-13.74351-2.63857-1.23463-5.35262-2.26905-8.2754-2.62619-.16211-.01981-.32378-.04677-.48651-.05751-2.96851-.19589-4.31975,1.49259-3.48201,4.35372.64361,2.19811,1.86331,4.09631,3.12247,5.97312.18083.26951.37022.53329.63757.91743-.20237-.05698-.30067-.05649-.35778-.10475-3.93576-3.32622-6.97768-7.2617-8.10928-12.3965-.28114-1.27572-.37659-2.67811-.16821-3.95897.51121-3.14225,2.82912-4.59685,5.65004-5.42142.72814-.21285,1.47986-.3555,2.22885-.48283.47925-.08149.70858-.28137.72027-.79151.021-.91735.09529-1.83347.14769-2.75656-9.20591.32621-19.22771,7.06508-21.78859,17.95881-.60717-.39574-1.18397-.77166-1.74934-1.14015,2.31566-9.63053,13.17005-20.13835,27.46669-18.99655,13.14305,1.04965,21.6154,11.43831,23.03546,21.20116v.00002Z"/>
  <path d="m41.32415,32.51725c1.65442,1.32151,3.00518,2.71378,4.15233,4.29876,2.44213,3.37423,3.9057,7.07131,3.73975,11.31683-.09201,2.35381-.96272,4.33725-2.71489,5.90101-.44975.40138-.62335.80944-.63207,1.39403-.01493.99992-.11319,1.99859-.18691,3.16276,9.28629-1.77725,15.7642-6.88156,19.62479-15.39125.36284.16247.73084.3257,1.09752.49188.34457.15617.68772.31547,1.03085.47309-2.60659,7.66079-12.22781,16.77248-25.19653,16.52088-12.86702-.24963-21.62657-10.05534-23.60689-18.14086.15228.06752.297.08487.35731.1654,1.08981,1.45507,2.29837,2.84047,3.22862,4.39237,3.72544,6.21495,9.03016,10.11739,16.21165,11.36137.9357.16208,1.8887.23609,2.83689.30982.56644.04405,1.13911.0081,1.79615.0081.07294-1.19327.14337-2.3454.21687-3.54817-4.11147.49769-7.71237-.73564-11.0748-2.89725-4.5697-2.93777-8.54064-6.56418-12.17929-10.56901-6.24475-6.87321-11.35978-14.50353-15.2021-22.964-.82285-1.81182-1.44705-3.71383-2.00797-5.63178,1.06391,1.63057,2.08696,3.28957,3.19869,4.88685,5.23949,7.52777,11.45449,14.12184,18.93505,19.46272,4.11172,2.93562,8.45587,5.46081,13.39651,6.77267,1.3989.37145,2.82054.61712,4.27474.30576,1.92367-.41186,2.94868-1.75929,2.56303-3.68796-.27361-1.36833-.71256-2.73715-1.30438-3.99951-.68749-1.46642-1.62261-2.81674-2.55488-4.3945h-.00003Z"/>
  <path d="m19.6988,48.85334c.81531,1.24936,1.50809,2.31095,2.21833,3.39931-6.84232,6.91371-13.99998,13.45669-21.91714,19.16131,6.22349-7.76201,12.17385-15.76397,19.69882-22.56062h-.00002Z"/>
  <path d="m87.19697,0c-7.29734,6.64461-13.66506,14.23955-21.16502,20.75728-.99573-1.035-1.90898-1.98426-2.81759-2.92871,7.25931-6.87021,15.05569-13.10768,23.98261-17.82857Z"/>
  <path d="m52.85851,59.98161c1.45396-.53918,2.51891.08074,3.56456.91557,2.08229,1.66248,4.13894,3.36643,6.31289,4.90218,2.31197,1.63325,4.77632,3.06879,7.59119,3.64833,1.20316.24771,2.50937.3755,3.70879.18339,2.68601-.43022,4.28726-2.49366,4.43406-5.2746.16142-3.05808-.79115-5.84412-2.06898-8.54002-1.31014-2.76406-3.0119-5.28353-4.99359-7.61359-.16676-.19606-.32025-.40342-.47991-.60552.05241-.04805.10483-.09611.15724-.14418.84562.8892,1.72453,1.74934,2.53093,2.67277,3.03021,3.47004,5.34584,7.34806,6.34289,11.88548.28598,1.30144.39226,2.72866.18355,4.0347-.44571,2.78933-2.9896,4.70709-5.97582,4.82449-2.11877.08331-4.07246-.56068-6.01624-1.28016-5.37545-1.98964-11.32793-5.71858-15.29156-9.60884v-.00002Z"/>
  <path d="m30.13985,12.82216c-.97898.83129-1.75228.54267-2.63757-.13117-3.40197-2.58935-6.91433-5.01481-10.99103-6.46001-1.52348-.54008-3.09522-.90457-4.72171-.6684-3.41235.49547-5.29265,3.17196-4.70236,6.57037.59809,3.44341,2.15846,6.47525,3.95644,9.40826.48148.78543,1.01262,1.54042,1.52236,2.31146-.05668.0287-.11822.07105-.12646.06244-3.27605-3.42632-5.87305-7.26564-7.1391-11.89406-1.23818-4.52637,1.46486-6.85929,4.34249-7.4905,1.94467-.42657,3.84655-.0095,5.70166.57501,4.94714,1.55875,9.43111,4.03812,13.6893,6.95721.35623.24421.71211.48893,1.10598.75939h0Z"/>
</svg>